<?xml version="1.0" encoding="UTF-8" standalone="no"?>
<!-- Created with Inkscape (http://www.inkscape.org/) -->

<svg
   xmlns:dc="http://purl.org/dc/elements/1.1/"
   xmlns:cc="http://creativecommons.org/ns#"
   xmlns:rdf="http://www.w3.org/1999/02/22-rdf-syntax-ns#"
   xmlns:svg="http://www.w3.org/2000/svg"
   xmlns="http://www.w3.org/2000/svg"
   xmlns:sodipodi="http://sodipodi.sourceforge.net/DTD/sodipodi-0.dtd"
   xmlns:inkscape="http://www.inkscape.org/namespaces/inkscape"
   width="1024"
   height="1024"
   id="svg2"
   version="1.1"
   inkscape:version="0.48.3.1 r9886"
   sodipodi:docname="logo_blue2.svg">
  <defs
     id="defs4">
    <inkscape:path-effect
       effect="sketch"
       id="path-effect3907"
       is_visible="true"
       nbiter_approxstrokes="5"
       strokelength="100"
       strokelength_rdm="0.3;1"
       strokeoverlap="0.3"
       strokeoverlap_rdm="0.3;1"
       ends_tolerance="0.1;1"
       parallel_offset="5;1"
       tremble_size="5;1"
       tremble_frequency="1"
       nbtangents="5"
       tgt_places_rdmness="1;1"
       tgtscale="10"
       tgtlength="100"
       tgtlength_rdm="0.3;1" />
  </defs>
  <sodipodi:namedview
     id="base"
     pagecolor="#ffffff"
     bordercolor="#666666"
     borderopacity="1.0"
     inkscape:pageopacity="0.0"
     inkscape:pageshadow="2"
     inkscape:zoom="0.49497475"
     inkscape:cx="421.73405"
     inkscape:cy="588.18577"
     inkscape:document-units="px"
     inkscape:current-layer="layer1"
     showgrid="false"
     objecttolerance="5"
     gridtolerance="5"
     guidetolerance="5"
     inkscape:window-width="1366"
     inkscape:window-height="679"
     inkscape:window-x="0"
     inkscape:window-y="27"
     inkscape:window-maximized="1">
    <inkscape:grid
       type="xygrid"
       id="grid2985"
       empspacing="4"
       visible="true"
       enabled="true"
       snapvisiblegridlinesonly="false"
       spacingx="8px"
       spacingy="8px" />
  </sodipodi:namedview>
  <metadata
     id="metadata7">
    <rdf:RDF>
      <cc:Work
         rdf:about="">
        <dc:format>image/svg+xml</dc:format>
        <dc:type
           rdf:resource="http://purl.org/dc/dcmitype/StillImage" />
        <dc:title></dc:title>
      </cc:Work>
    </rdf:RDF>
  </metadata>
  <g
     inkscape:label="Layer 1"
     inkscape:groupmode="layer"
     id="layer1"
     transform="translate(0,-28.362183)">
    <path
       style="fill:#4fa4ff;fill-opacity:1;stroke:none"
       d="m 272.59375,177.65625 c -19.80149,15.63153 -55.02354,27.83087 -65.09924,45.63515 47.79115,74.3694 95.59508,148.7306 143.41174,223.0836 22.07292,0 44.14583,0 66.21875,0 31.64334,-52.68691 63.24693,-105.39768 94.875,-158.09375 31.62807,52.69607 63.23166,105.40684 94.875,158.09375 22.07292,0 44.14583,0 66.21875,0 48.57567,-75.5332 97.13816,-151.07487 145.6875,-226.625 -22.94776,-9.36699 -50.76344,-41.50286 -70.72969,-37.06172 C 712.06562,236.66719 676.07969,290.64609 640.09375,344.625 608.43444,291.87684 576.79959,239.11399 545.125,186.375 c -22.08333,0 -44.16667,0 -66.25,0 -31.67459,52.73899 -63.30943,105.50184 -94.96875,158.25 C 346.80208,288.96875 309.69792,233.3125 272.59375,177.65625 z M 158,506.375 c 0,28 0,56 0,84 94.5625,0 189.125,0 283.6875,0 -66.27685,85.89923 -132.58888,171.77131 -198.84375,257.6875 24.73142,9.54241 54.79511,52.04727 75.86617,38.89645 64.81506,-84.05953 129.63097,-168.1184 194.44633,-252.1777 66.90618,86.77089 133.81294,173.54132 200.71875,260.3125 19.82208,-17.40559 58.82846,-31.69398 66.48802,-51.05853 C 715.14165,759.4628 649.86627,674.93206 584.625,590.375 c 93.79167,0 187.58333,0 281.375,0 0,-28 0,-56 0,-84 -236,0 -472,0 -708,0 z"
       id="path3900"
       inkscape:connector-curvature="0" />
    <path
       inkscape:connector-curvature="0"
       id="path3905"
       d="m 270.37776,189.39852 c -3.4809,2.36707 -7.34709,4.69321 -11.41709,7.0227 -6.11339,3.49903 -12.68895,7.00688 -19.04895,10.63292 -6.36001,3.62603 -12.49977,7.36695 -17.71635,11.32102 -5.21659,3.95407 -9.50627,8.11994 -12.20629,12.62236 1.14798,1.93442 2.29509,3.86758 3.44271,5.79839 m 3.27814,-25.47141 c -3.51239,2.94576 -6.35165,6.06382 -8.2674,9.39967 10.59263,16.46313 21.89961,33.3646 33.49724,50.36291 m -14.8322,-7.26593 c 12.36184,20.48322 26.49485,40.81619 40.62516,60.31292 m -3.42604,-11.26427 c 18.58507,27.72423 34.96788,53.96683 53.1193,81.60882 m -22.81588,-31.70998 c 14.43127,23.0717 31.89156,46.74294 50.5812,69.48652 M 333.015,420.58536 c 5.50874,9.39527 11.43057,18.32262 17.65948,26.87886 15.23208,-0.72826 31.03265,-2.14377 47.13443,-4.00239 m -24.80613,3.96786 c 12.83583,0.005 26.24687,-0.0687 40.0484,-0.22023 6.52078,-10.14055 13.34444,-20.34248 20.34435,-30.6046 m -3.77162,10.38411 c 12.52622,-20.29986 23.65424,-39.39385 34.07711,-57.60737 m -8.63467,13.86503 c 16.63151,-25.763 31.31202,-53.71606 46.19403,-82.42076 m -9.89955,20.6773 c 7.25106,-11.89608 14.99414,-24.12765 23.0568,-36.29751 8.61461,13.85922 17.59089,27.78888 26.7185,42.27221 m -17.65265,-20.27061 c 15.4441,23.88676 28.69868,46.95956 42.47152,69.99098 m -15.37848,-22.39971 c 16.87065,26.52134 31.07309,50.83082 46.06243,74.81982 m -13.65381,-13.07869 c 6.36761,9.98893 12.58471,20.28869 18.80889,30.93924 16.75271,1.09359 33.51684,2.89414 50.74046,5.51626 m -17.13353,-7.28373 c 12.23352,0.62107 24.63451,1.16399 36.99164,1.89849 6.03793,-9.23155 12.03798,-18.29882 17.83213,-26.9873 m -6.4262,7.54356 c 14.40156,-22.87546 27.74149,-44.6465 40.33649,-66.64197 m -9.44796,18.51017 c 16.01448,-24.8458 34.09002,-50.39776 52.94804,-74.50501 m -14.1535,19.73052 c 18.17227,-26.61297 35.1529,-56.58073 52.76053,-88.03028 m -16.95119,25.03179 c 9.90061,-14.88203 19.91727,-29.69952 30.10719,-44.0622 -5.61873,-2.0171 -11.50428,-5.35818 -17.45069,-9.06175 -5.88984,-3.66832 -11.83899,-7.68939 -17.67095,-11.19304 m 21.20075,10.07226 c -1.68731,-1.07569 -3.38115,-2.21556 -5.07651,-3.39979 -6.06136,-4.23393 -12.13717,-9.03885 -18.036,-13.47398 -5.89882,-4.43514 -11.6234,-8.49737 -17.03467,-11.21398 -2.70563,-1.35831 -5.33376,-2.37991 -7.86341,-2.946 -2.52966,-0.5661 -4.96164,-0.67634 -7.26067,-0.21955 -2.45627,4.08006 -4.86532,8.1392 -7.22494,12.18076 m 1.52141,-4.03865 c -1.59103,-0.10725 -3.14274,-0.017 -4.64692,0.29736 -14.82361,23.09058 -29.72039,46.68194 -42.56915,69.38764 m 14.23227,-19.759 c -17.05351,25.83824 -35.14087,51.34758 -53.14365,75.5156 m 18.28208,-21.17348 c -12.83633,17.21929 -24.44885,36.20182 -35.65551,55.52177 -5.01048,-8.65761 -9.92464,-17.2362 -14.83629,-25.89851 m 11.77146,26.20511 C 621.77408,317.3729 605.49906,288.08702 589.30703,255.67119 m 7.80423,30.67959 C 579.4548,257.58524 563.83807,229.4116 548.42711,200.79962 m 16.46123,16.15975 c -7.08314,-11.88629 -14.6114,-23.84945 -22.34368,-35.52453 -15.53034,0.87664 -31.28249,2.06848 -46.97757,3.99556 m 27.97977,2.31177 c -15.10931,-0.0231 -30.13373,0.13391 -45.23812,0.45408 -4.76969,7.85481 -9.5676,15.76943 -14.43007,23.74004 m 10.95605,-10.29464 c -14.58678,24.11729 -29.55188,49.56955 -43.91428,74.37774 m 8.95571,-18.98519 c -13.77594,21.8925 -26.57664,42.85945 -39.96969,63.68396 m 7.86147,-12.8238 c -8.64948,14.73997 -16.98604,28.58323 -25.01484,41.77927 -5.8126,-10.1437 -11.48708,-20.57566 -17.02459,-31.22132 m 5.95105,10.87953 c -19.0611,-28.57871 -36.05424,-53.93204 -53.1316,-79.21727 m 16.43894,32.46015 c -15.52714,-21.5444 -29.74439,-44.82652 -43.37223,-67.4026 m 20.7754,8.23321 c -10.27979,-15.5561 -20.82802,-31.19995 -31.44421,-46.77519 -4.99619,3.95568 -10.96926,7.70924 -17.27455,11.41074 -1.65885,0.97383 -3.34065,1.94405 -5.03355,2.91333 m 11.13279,-5.65323 c -2.92501,1.95217 -6.06251,3.8801 -9.3251,5.80642 -6.23412,3.68079 -12.92883,7.35786 -19.42273,11.16348 -6.4939,3.80561 -12.78359,7.73847 -18.1676,11.90342 -5.38401,4.16495 -9.85552,8.55699 -12.74688,13.29751 3.24966,6.23727 6.43568,12.53156 9.57642,18.88191 m -8.14551,-28.90144 c -0.93382,1.15071 -1.76015,2.3274 -2.46673,3.53241 15.77649,24.91536 32.44745,50.6931 48.83938,76.57557 m -9.53364,-27.94506 c 17.24331,25.06281 32.05192,51.17447 47.42816,78.93388 m -22.66683,-8.69983 c 16.31568,26.44462 34.15532,51.90579 52.62557,77.78244 M 310.9324,380.3562 c 11.66327,18.60135 24.76144,38.81126 37.84219,59.03837 0.44124,0.01 0.88247,0.02 1.32369,0.03 m -5.61751,-0.84047 c 2.66772,3.89422 5.24023,7.78537 7.7254,11.67094 21.8494,-0.24745 41.75704,-0.61825 60.54845,-1.37515 2.22302,-5.41219 4.36122,-10.85382 6.43184,-16.33031 m -7.35664,20.77875 c 3.75747,0.0637 7.49394,0.1164 11.21406,0.16019 15.31713,-23.95199 29.62733,-48.45051 45.15073,-72.43887 m -23.77727,7.29989 c 12.54952,-20.66365 25.93984,-40.72432 40.15848,-59.76302 m -7.65322,28.13981 c 11.04156,-19.537 24.4345,-40.19959 38.82193,-61.37049 3.91852,5.10754 7.91029,10.17737 11.9479,15.22188 m -17.6269,-17.59001 c 0.75966,-1.39717 1.52675,-2.7853 2.301,-4.1648 14.87425,24.77491 32.38104,52.73358 50.63182,81.00063 m -11.28611,-20.42429 c 12.63436,21.53372 25.75681,43.15313 38.83675,64.7461 m -10.62482,-19.1181 c 9.93438,18.77385 20.76414,36.53073 31.44779,54.20279 4.49759,-0.0705 8.98819,-0.14482 13.46133,-0.2136 m -19.24249,-4.3612 c 0.62985,1.13049 1.26485,2.26258 1.90471,3.39618 21.27224,-0.20684 43.86443,0.002 66.49728,0.26798 0.37694,-0.55185 0.75392,-1.10365 1.13089,-1.6554 m -16.97211,6.89885 c 4.53329,0.14747 9.09683,0.23498 13.68956,0.27069 13.74799,-20.82531 28.37534,-43.21351 43.70718,-65.81371 m -15.11553,18.6668 c 17.86466,-27.65582 35.9682,-54.88581 54.57231,-81.67996 m -21.63211,20.89496 c 17.32031,-26.19192 34.59123,-51.26086 53.98969,-76.71178 m -13.32101,19.84791 c 14.8251,-23.30718 27.67331,-46.47915 38.5211,-69.98263 -5.65361,-2.0755 -11.69494,-5.20537 -18.00441,-8.82477 m 16.92781,21.75727 c 2.42391,-3.58697 4.77888,-7.1758 7.07363,-10.77148 -5.64971,-2.5145 -11.73548,-6.49054 -18.09678,-11.02614 -6.36131,-4.5356 -12.99677,-9.63379 -19.62389,-14.36787 -6.62713,-4.73408 -13.23622,-9.10319 -19.51714,-12.12811 -3.14045,-1.51246 -6.19927,-2.68775 -9.1483,-3.40699 -2.94904,-0.71924 -5.7879,-0.98139 -8.50421,-0.68535 -0.009,0.0104 -0.0182,0.0207 -0.0273,0.0311 m 28.91802,4.28289 c -2.95021,-1.86277 -5.844,-3.48293 -8.66255,-4.76714 -2.93562,-1.33755 -5.78964,-2.31086 -8.54065,-2.81361 -2.751,-0.50275 -5.39896,-0.53517 -7.92262,0.0131 -12.62687,18.51506 -25.12702,37.76897 -38.10014,56.66813 m 22.58267,-17.35591 c -15.30807,24.1938 -30.91348,46.06873 -46.01104,67.06274 m 3.10347,-20.04665 c -16.80702,22.16889 -31.42937,48.21004 -46.36431,75.38119 m 3.94427,-10.49988 c -5.04019,7.71386 -9.99088,15.39273 -14.84518,23.06057 -8.35335,-14.46263 -16.37095,-28.9646 -24.00996,-43.35067 m 12.90694,7.63639 c -16.64693,-28.1926 -34.32956,-56.37269 -52.77715,-85.3055 m 20.14446,30.20027 c -15.00125,-22.59763 -27.83938,-45.20138 -40.68802,-66.7304 m 6.20088,11.56952 c -3.89267,-6.51122 -7.61921,-12.83118 -11.20487,-19.00594 -19.68443,0.0107 -38.27625,1.14053 -56.31503,2.39944 m 26.05284,-5.21117 c -8.70871,-0.16352 -17.63246,-0.1249 -26.76715,0.0826 -9.86458,15.48262 -20.58088,31.65169 -32.117,48.23507 m 0.56528,-15.81289 c -14.33282,25.87962 -28.66224,50.42926 -40.52583,74.40042 m 16.49755,-23.39921 c -15.80721,23.67448 -30.58169,50.09751 -46.98746,77.90353 -0.58947,-0.67549 -1.18078,-1.34941 -1.77402,-2.02182 m 10.73025,-13.22315 c -3.32387,5.81514 -6.72003,11.58009 -10.16824,17.29512 -13.67175,-21.0869 -28.04253,-42.84572 -42.10337,-65.26082 m 18.16388,24.68457 c -14.55004,-22.20277 -27.83806,-42.6863 -40.60016,-63.26872 m 6.11992,7.11528 c -14.1851,-20.39678 -27.38681,-40.5249 -40.66242,-60.54573 m 11.7204,23.22695 c -7.40416,-10.03204 -14.291,-20.15316 -20.88339,-30.25623 -4.81455,4.00221 -10.49739,7.8034 -16.43591,11.56211 -5.93852,3.7587 -12.13578,7.47659 -18.02641,11.30558 -3.35761,2.18249 -6.61622,4.40075 -9.67039,6.67901 m 36.30676,-28.88411 c -3.26267,2.15074 -6.7078,4.26813 -10.21218,6.38146 -6.15662,3.71279 -12.49169,7.41503 -18.39551,11.2432 -5.90381,3.82818 -11.37959,7.78143 -15.87254,11.96801 -4.49296,4.18657 -8.01296,8.60115 -9.96776,13.36602 0.2247,0.31159 0.44966,0.62334 0.67489,0.93525 m 13.18748,-8.33271 c -4.23974,3.24553 -7.7011,6.75619 -9.95745,10.57969 10.96467,17.05579 21.7896,34.94362 32.27218,52.7232 m -8.3895,-20.47277 c 13.72589,19.1132 25.35654,39.95157 36.14289,60.96453 m -14.99314,-7.22726 c 15.13339,23.30002 29.79721,44.3305 45.56212,65.07603 m -14.30584,-23.19144 c 14.39726,21.8391 27.97672,43.35406 41.64899,64.98894 m -4.81197,-11.53578 c 7.60555,12.72404 15.30583,25.18881 22.80827,37.48216 16.88115,-0.32732 33.48857,-0.89104 49.34741,-1.54859 m -22.30077,-6.45974 c 13.37511,-0.30663 27.59853,-0.43851 42.32647,-0.56096 7.86979,-12.05625 16.23494,-24.10443 24.75963,-36.30595 m -10.27312,28.23607 c 12.56303,-21.61386 25.45607,-42.73952 38.69719,-64.51442 m -18.0217,14.10642 c 13.4277,-22.09158 26.66599,-46.45915 38.53054,-70.49032 m -0.90431,13.94953 c 8.16305,-13.44801 15.37756,-26.03253 21.93147,-38.13234 6.74233,13.92244 12.78248,28.35787 18.43396,42.8927 m -10.54895,-23.57899 c 14.71834,25.89525 32.19783,51.58722 49.11609,75.04359 m -17.3963,-18.59604 c 12.97427,20.88991 24.59488,40.98465 36.05418,61.1198 m -12.52607,-7.88837 c 6.93394,11.65932 14.16884,23.13277 21.74864,34.53987 10.95422,0.003 22.11746,-0.0333 33.51032,-0.0525 m -13.71496,-6.17375 c 15.99339,0.53591 33.15887,0.48597 50.93742,0.24814 4.54251,-6.44252 9.20908,-12.92315 13.94877,-19.40562 m -3.39463,15.44216 c 14.41669,-22.71516 28.05574,-46.30139 40.47036,-70.68481 m -19.84735,17.99791 c 18.02597,-29.38697 37.9382,-53.90853 60.01632,-78.10144 m -15.33533,21.95784 c 12.95101,-21.58601 27.20501,-41.54555 41.69957,-60.68767 m -3.58657,9.3226 c 13.81911,-20.59901 25.26441,-39.16996 36.03405,-57.06442 m -12.39115,16.01626 c 2.97218,-4.79925 6.01499,-9.73663 9.1048,-14.79244 -5.87089,-2.39102 -12.00877,-6.3483 -18.21992,-10.98051 -6.21114,-4.63221 -12.49878,-9.93847 -18.70826,-14.90557 -3.04539,-2.43607 -6.07217,-4.78879 -9.0602,-6.93328 m 15.71579,11.28461 c -1.33394,-0.97229 -2.66756,-1.93252 -3.9988,-2.87157 -6.19829,-4.37227 -12.34656,-8.28524 -18.22267,-10.82627 -2.93806,-1.27051 -5.80766,-2.19812 -8.58177,-2.6684 -2.77412,-0.47029 -5.45244,-0.48329 -8.01306,0.0764 -7.35609,10.57433 -14.84711,21.18019 -22.48537,31.77697 m 7.29227,-21.69339 c -13.35681,20.34317 -26.4249,40.94011 -38.30245,61.00473 m 5.57938,-18.5219 c -13.81097,20.50748 -26.06886,40.71793 -37.67668,61.66919 m 9.211,-11.29518 c -11.5347,16.51443 -22.20906,33.78495 -32.14411,51.10999 -1.88672,-3.61706 -3.74161,-7.23186 -5.56576,-10.85061 m 8.02076,15.60215 c -0.78159,1.0894 -1.5569,2.17784 -2.32621,3.26536 -12.80454,-19.66806 -23.69553,-39.63058 -34.28216,-59.59533 m 6.76298,8.29046 c -15.1115,-24.62826 -32.13724,-50.49669 -50.57355,-75.4485 m 21.92948,24.49068 c -11.3769,-19.15684 -22.3272,-38.46687 -32.964,-58.37159 -1.55767,-0.0789 -3.11363,-0.16097 -4.66793,-0.24643 m -2.79537,11.79311 c -1.74761,-2.94 -3.47634,-5.87889 -5.18618,-8.81769 -21.84439,-0.20018 -42.8836,-0.39965 -63.11584,-0.87853 -1.56859,3.04071 -3.11512,6.07392 -4.63961,9.09836 m 13.89038,-18.00879 c -4.15972,0.1761 -8.27512,0.33981 -12.35347,0.49881 -11.66777,19.491 -22.23218,38.84507 -32.87068,59.29802 m 10.88826,-9.84922 c -16.64414,27.0223 -30.07715,51.52733 -43.04516,76.32987 m 22.5207,-28.66174 c -11.83815,19.28611 -24.78545,40.5431 -38.22869,62.0872 -0.44664,-0.57742 -0.89375,-1.15456 -1.34132,-1.73146 m 5.24442,-4.18785 c -2.29949,4.14395 -4.62222,8.22627 -6.96214,12.25543 -14.84427,-22.65029 -30.27708,-47.13205 -45.068,-71.72337 m 16.57119,20.57646 c -14.34659,-22.25535 -28.61299,-42.37485 -42.0642,-60.70988 m 2.74774,17.71285 c -16.83379,-22.88831 -31.77819,-47.46097 -47.06359,-71.81824 -3.1314,2.44614 -6.66956,4.80056 -10.45459,7.11268 m 1.14938,-7.09294 c -4.84582,3.44751 -10.39228,6.73069 -16.14446,9.9543 -6.29336,3.52688 -12.83326,6.98168 -19.01764,10.4957 -6.18438,3.51403 -12.01635,7.08642 -16.90728,10.85787 -3.38884,2.61318 -6.32606,5.32253 -8.60859,8.17688 m 18.59154,-2.55203 c -1.05794,0.83801 -2.08581,1.67531 -3.07772,2.51405 -4.84439,4.09631 -8.83005,8.23053 -11.27611,12.64148 14.45763,21.71595 28.22028,41.27653 42.89393,60.71224 m -12.73493,-32.44962 c 15.7322,21.90195 30.69797,46.51583 46.74725,71.48957 m -10.64793,-19.3202 c 17.14135,25.07122 32.00228,49.24796 47.85867,73.96164 m -16.54857,-14.0476 c 15.82743,24.13543 30.52819,47.69571 43.75636,68.9706 m -7.70691,-14.63241 c 4.48877,7.40051 8.94271,14.44281 13.35002,21.18977 14.71332,-0.57878 29.27856,-2.09269 43.62922,-4.18732 m -14.67699,3.39392 c 11.76235,0.33346 23.60802,0.56091 35.4358,0.81363 9.60825,-16.12022 19.16663,-32.17786 28.26023,-47.63099 m -9.12543,24.56633 c 13.02159,-24.50734 27.75135,-47.07389 42.40121,-70.30125 m -12.5721,11.80716 c 16.08158,-26.9027 32.19482,-52.77754 49.24708,-79.42711 0.90598,1.36647 1.81457,2.73076 2.72591,4.09258 m -21.31061,18.93056 c 4.28537,-6.40503 8.54734,-12.89628 12.83931,-19.44409 13.77481,21.29031 27.85066,41.99803 43.99256,63.09872 m -18.92972,-31.2757 c 12.1381,20.06309 23.68683,40.52854 34.77577,61.30824 m 0.10719,-7.69795 c 13.09889,24.10769 26.75394,47.58592 38.57889,71.1227 3.20386,-0.0277 6.37816,-0.0544 9.51803,-0.0786 m -12.22773,-10.60285 c 2.52319,4.30902 5.05934,8.68309 7.59464,13.10699 21.34548,-0.36128 42.67076,0.15749 62.9528,0.43252 1.32162,-2.3819 2.62553,-4.76794 3.90947,-7.1606 m -21.20581,5.78465 c 5.36959,-0.0771 10.68878,-0.12339 15.95997,-0.1445 9.98172,-15.96564 19.36156,-31.6164 28.24561,-47.20383 m -8.25692,9.88446 c 13.61051,-22.0754 29.1203,-43.40343 45.49675,-64.09972 m -15.25071,10.66635 c 15.16881,-24.36308 30.59323,-46.80998 46.00119,-68.59144 m -10.81218,17.52096 c 14.60314,-23.13519 31.07033,-46.47436 48.59605,-69.62268 m -17.21061,17.27949 c 7.05989,-12.6881 14.72111,-24.51854 22.62166,-35.86653 -5.65722,-2.05494 -11.55699,-5.39414 -17.53034,-9.10966 -3.5489,-2.20747 -7.12555,-4.55048 -10.70317,-6.85605 m 18.01141,11.20062 c -1.21906,-0.75379 -2.44056,-1.53229 -3.66296,-2.3288 -6.34442,-4.13403 -12.708,-8.7527 -18.91593,-12.92107 -6.20793,-4.16838 -12.26495,-7.88577 -18.01804,-10.23677 -2.87654,-1.17549 -5.67693,-2.00993 -8.37934,-2.38822 -2.70241,-0.37828 -5.30681,-0.30088 -7.78904,0.35399 -5.18946,8.22776 -10.38378,16.54622 -15.65304,24.99462 m 6.84204,-26.00285 c -19.00779,27.56331 -35.42647,51.84176 -52.50591,75.11648 m 20.41583,-20.10544 c -16.68209,27.06816 -38.15011,52.98026 -60.07555,77.25432 m 25.35228,-17.41571 c -9.9073,15.62722 -20.0185,31.07076 -30.1899,46.79553 -3.98456,-6.31605 -7.97946,-12.58225 -11.97402,-18.76361 m 6.82971,9.3763 c -17.5035,-26.6259 -33.61592,-54.28168 -51.68809,-81.6413 m 12.55595,29.23595 c -16.52463,-24.84506 -29.70511,-54.90908 -41.41503,-86.43354 m 17.2153,27.8611 c -7.43151,-12.4381 -15.6121,-25.12675 -24.35171,-37.78964 -15.975,0.22419 -32.50263,0.47253 -49.39396,1.01779 m 29.28826,-0.41114 c -15.70412,0.46907 -31.27929,0.19739 -47.03575,-0.51727 -7.35592,10.82275 -14.84976,21.30507 -22.69223,31.64819 m 11.29478,-11.33352 c -13.89433,22.49735 -26.88505,42.19365 -40.28554,60.14604 m 11.30223,-20.00766 c -14.72296,23.09483 -27.17875,47.36648 -39.31101,73.26766 m 6.55722,-16.18814 c -7.84376,13.25801 -15.57866,26.35076 -23.09547,39.20535 -7.63503,-12.64387 -15.07688,-25.49637 -22.2346,-38.61708 m 13.92525,15.0458 C 362.93477,300.98132 349.45627,280.50815 335.68823,260.9417 m 5.89345,22.50082 c -14.86974,-23.12408 -28.24844,-44.96734 -40.55894,-67.73881 m 3.83995,18.50064 c -11.98427,-17.63644 -23.4771,-34.94801 -35.02911,-52.39063 -2.93986,2.27809 -6.21974,4.47478 -9.71285,6.61522 m 8.12383,-3.17431 c -4.02506,2.70195 -8.44462,5.27002 -12.99482,7.74829 -6.16435,3.35743 -12.56653,6.54718 -18.5891,9.71072 -6.02258,3.16354 -11.66755,6.30144 -16.35012,9.60585 -4.68258,3.30442 -8.40888,6.78553 -10.56959,10.61495 0.831,0.97942 1.66446,1.9538 2.50033,2.923 m -2.71008,-21.65003 c -4.0591,3.39668 -7.35832,7.03372 -9.47153,10.97166 10.51062,16.10297 21.05914,32.97205 31.97308,50.47335 m 1.17173,-8.69812 c 14.92771,23.05787 29.63921,46.14166 45.47015,71.04217 m -18.40783,-22.422 c 13.3656,20.53731 27.20628,41.59071 41.70258,63.0449 m -17.31734,-15.50786 c 17.59465,25.10293 33.28841,51.8592 50.00743,79.14322 M 325.923,419.18538 c 7.66858,11.71981 14.82846,23.0299 21.67884,34.13939 16.31063,-0.22586 32.13453,-0.76658 47.86393,-1.21034 m -18.0064,-13.90369 c 14.09314,-0.26825 27.7241,0.16643 41.19013,1.16963 5.76219,-8.7822 11.40887,-17.1716 17.11167,-25.2454 m -1.58781,24.26839 c 14.51187,-23.33786 26.95143,-47.07765 38.41093,-71.40199 m -22.03281,12.06401 c 15.31455,-25.11046 30.97159,-47.56315 48.89209,-69.65275 m -4.6755,16.9589 c 7.64034,-12.21921 15.19569,-24.48463 22.82893,-36.78203 8.03861,12.83041 16.16067,25.62534 24.55642,38.40029 m -11.77135,-24.63534 c 12.70366,22.19111 24.73499,45.36209 34.91541,69.40062 m -13.20037,-11.5939 c 13.45357,21.93015 26.49471,43.46015 39.88066,65.01971 m 0.34586,-15.28369 c 6.94417,12.47878 14.08841,24.91541 21.05529,37.21902 16.65589,-0.38749 33.06166,-0.95829 48.59578,-1.86081 m -35.87634,3.83095 c 13.53597,0.57277 27.68495,0.48778 42.21975,0.0458 5.75807,-8.64679 11.70999,-17.47321 17.77475,-26.372 m -4.07827,7.32326 c 15.38051,-23.48794 32.80143,-48.00117 50.83127,-70.32536 m -18.33543,17.08188 c 18.25946,-27.05906 34.7838,-55.80837 50.2818,-83.32811 0.002,-0.003 0.003,-0.006 0.005,-0.008 m -20.01002,25.66513 c 15.15588,-24.41539 31.74174,-47.75569 50.02501,-72.19173 m -13.68467,19.68365 c 10.48439,-16.05903 21.29879,-33.19376 32.57123,-51.33948 -5.44305,-2.99435 -11.09938,-7.61425 -16.75579,-12.94369 -1.91134,-1.80086 -3.82312,-3.68165 -5.72858,-5.60367 m 13.23258,14.05031 c -3.80494,-2.11595 -7.70651,-4.71796 -11.63624,-7.51034 -5.81215,-4.12999 -11.68283,-8.67317 -17.39795,-12.71359 -5.71512,-4.04041 -11.27375,-7.58067 -16.51934,-9.74953 -2.6228,-1.08443 -5.16879,-1.82671 -7.61589,-2.11413 -2.44711,-0.28742 -4.79658,-0.12071 -7.00703,0.62652 -1.06969,2.19003 -2.123,4.38924 -3.15831,6.59786 m 25.84571,0.22996 c -1.62163,-0.62107 -3.23243,-1.10114 -4.82237,-1.41492 -2.63389,-0.51981 -5.20957,-0.58301 -7.68963,-0.0772 -12.65777,18.75422 -27.63262,37.2791 -43.4022,55.01465 m 10.50722,-20.85131 c -17.07304,27.06268 -37.18083,56.20262 -57.05472,86.75426 M 677.58185,286.029 c -14.37235,20.12189 -28.88006,42.58392 -43.97912,65.5049 -3.22925,-4.60948 -6.48939,-9.19495 -9.78599,-13.77908 m 15.0613,-4.78242 c -1.56471,2.46746 -3.13126,4.93144 -4.69761,7.39171 -12.88875,-22.90225 -25.75605,-46.10213 -37.15538,-69.76441 m 18.31772,29.26137 c -15.52433,-29.88535 -35.77223,-57.46291 -56.41144,-87.23441 m 23.30023,24.79828 c -10.86853,-16.41931 -20.95484,-32.92146 -31.06474,-49.0946 -5.33492,0.17214 -10.67128,0.36843 -16.02525,0.59711 m 10.08044,0.74674 c -0.14122,-0.23112 -0.28227,-0.46234 -0.42315,-0.69367 -22.44269,-0.32906 -43.70345,-1.42186 -64.28064,-3.67835 -3.26641,5.52188 -6.45731,10.91648 -9.59088,16.16922 m 15.896,-10.21368 c -0.63322,-0.006 -1.26571,-0.0129 -1.89748,-0.0197 -16.73121,25.34513 -31.71098,50.24339 -48.29573,73.91167 m 3.97189,-24.55755 c -12.61642,23.27407 -26.66567,46.83742 -39.6165,70.82205 m 5.2217,-12.1684 c -9.64028,17.56642 -18.95414,33.35603 -27.53068,48.23185 -4.98282,-9.62835 -9.75593,-19.51534 -14.25696,-29.53051 m 15.04025,18.91477 c -17.45259,-25.31193 -33.52764,-51.9452 -47.77831,-76.9004 m 15.75727,19.14187 c -14.2524,-21.75287 -31.14606,-46.66664 -48.261,-71.90415 m 5.1862,18.09258 c -11.59668,-17.9907 -22.73181,-34.7198 -33.30685,-50.76896 -4.62191,4.34465 -10.12198,8.584 -15.86195,12.83423 -1.50997,1.11807 -3.03673,2.2366 -4.5691,3.35709 m -89.53986,321.24726 c 0.75353,26.33788 -0.079,51.38974 -1.20418,76.81711 1.53811,0.002 3.07503,0.006 4.61112,0.011 m 0.42084,-16.75359 c -0.0271,4.85938 -0.0352,9.78394 -0.0261,14.76717 18.84333,0.11053 37.93423,1.0669 57.17493,2.514 m -26.28139,4.18277 c 28.24979,-0.51831 60.30967,0.45288 93.24022,1.66695 m -30.88587,-6.47163 c 29.38053,-0.51397 62.16487,-1.08166 95.2331,-2.9757 m -22.66077,1.49127 c 29.11918,-0.63618 55.86407,0.55981 82.37885,2.23001 m -13.42383,-3.75298 c 15.74403,0.38124 31.54776,0.71755 47.23444,1.27677 -7.08605,9.29133 -14.23023,18.69236 -21.49372,28.29598 m 11.67398,-18.4658 c -16.30749,19.69711 -30.95421,40.16796 -45.03157,60.2826 m 11.73676,-14.56302 c -18.66454,26.03715 -38.34098,49.93492 -57.4481,74.58977 m 7.14289,-14.42747 c -19.78425,26.18088 -35.97074,48.77327 -50.44785,71.66861 m 15.6284,-19.6809 c -18.49633,23.79091 -40.05286,49.39756 -62.34466,73.29117 m 16.76686,-17.37653 c -10.90494,13.84646 -20.7703,26.90758 -30.20466,39.75408 6.44128,2.29644 13.34003,6.59521 20.42742,11.5644 7.08739,4.96918 14.35187,10.61953 21.42869,15.65729 0.52699,0.37514 1.05295,0.74685 1.57774,1.11459 m -24.56557,-28.66621 c 0.61413,0.48963 1.23078,0.9868 1.84981,1.49028 6.43713,5.23553 13.14262,11.15388 19.85278,16.37747 6.71015,5.2236 13.41332,9.75254 19.78781,12.18884 3.18724,1.21814 6.29236,1.91248 9.28735,1.91273 2.99499,2.5e-4 5.87991,-0.6939 8.64394,-2.24033 3.89277,-4.53707 7.80919,-9.04553 11.73396,-13.51764 m -16.07246,25.10717 c 1.44643,-0.48092 2.85777,-1.15783 4.23105,-2.05476 19.50556,-25.73478 37.92497,-47.27401 56.86922,-68.55291 m -18.33816,16.50826 c 17.48611,-23.85538 35.08695,-46.37188 51.63838,-68.81127 m -16.38363,13.7825 c 14.21222,-19.58658 29.91666,-38.44008 46.08108,-57.04043 m -2.77473,8.27673 c 19.61611,-24.63496 38.14718,-52.44751 53.85315,-78.75108 m -19.6407,30.5712 c 13.6725,-16.84851 26.43619,-33.68458 39.47023,-51.00162 4.6057,5.48469 9.24516,10.90933 13.97041,16.25214 m -13.14481,-17.92232 c 15.07517,18.15143 29.9869,37.84807 45.37993,57.76358 m -13.17989,-8.29899 c 18.36253,23.30131 36.1197,48.78903 53.27298,75.16814 m -12.88335,-23.58609 c 18.58128,26.86603 40.41093,53.19315 60.95355,81.18716 M 635.5062,795.28461 c 14.33705,20.05947 30.1378,38.67779 45.63316,56.07583 m -11.84539,-19.12156 c 15.11555,21.22039 31.43004,42.14397 47.67014,64.01406 4.97242,-3.93783 11.11145,-7.58745 17.6275,-11.03361 m -21.02693,4.6549 c 1.55448,2.18476 3.11505,4.36742 4.67973,6.54878 4.74083,-4.25923 10.68253,-8.32145 17.01759,-12.30584 6.33505,-3.9844 13.05997,-7.88946 19.35765,-11.8325 6.29769,-3.94304 12.16585,-7.92321 16.8308,-12.07793 3.90149,-3.47477 6.9667,-7.07409 8.74512,-10.87832 m -13.03422,10.63894 c 2.54596,-1.81134 4.93934,-3.64808 7.10482,-5.52207 4.81267,-4.16486 8.50062,-8.51646 10.24033,-13.1801 -13.68114,-16.0899 -27.4612,-31.76998 -42.3405,-46.4651 m 16.80226,19.45 c -17.96784,-24.90102 -36.78623,-49.13046 -55.31123,-75.20195 m 11.16718,26.59526 c -15.60919,-17.75993 -29.38957,-37.13379 -43.0879,-56.65131 m 6.90092,5.56896 c -19.32082,-22.36964 -34.69049,-45.85352 -49.27935,-68.38723 m 9.11283,24.63083 c -17.28883,-22.65956 -32.51189,-45.03096 -46.34149,-68.53496 m 16.07512,9.79579 c -6.36112,-8.46463 -13.1827,-16.9122 -20.39267,-25.3199 14.62239,0.17973 28.43803,0.44275 41.66203,0.85739 m -13.827,2.8896 c 23.98656,0.92637 48.50797,1.33921 73.62933,2.66534 m -22.72084,-11.22053 c 29.19622,-0.34269 56.68624,1.06346 84.37452,3.47702 m -17.49465,3.35869 c 27.44255,-0.89984 53.15139,-0.77382 79.45196,-1.26367 m -24.37106,2.67037 c 24.95247,0.24012 49.80266,0.87014 75.16848,2.29611 0.0265,-0.77769 0.0535,-1.55448 0.0811,-2.33035 m -19.15799,-3.28617 c 5.22379,0.004 10.38886,-7e-5 15.51124,-0.0116 0.76841,-27.43764 0.24834,-55.1042 1.09775,-82.95774 m 0.25203,32.82506 c -0.13339,-10.47212 -0.16852,-20.63805 -0.1429,-30.61316 -13.9524,0.10203 -27.78706,0.57386 -41.60519,1.10434 m 28.58658,0.18468 c -26.96606,0.88558 -55.97533,1.30809 -86.34737,3.05159 m 21.65249,-11.09859 c -24.03146,0.4717 -49.75849,0.79278 -76.98768,1.69216 m 14.53623,0.8853 c -25.03218,-1.15868 -49.61672,-0.79558 -73.92433,-0.87112 m 11.02434,8.25397 c -31.58638,-1.39122 -65.31095,1.06156 -98.84742,3.3929 m 39.33143,-4.21315 c -26.39497,-0.93119 -52.60973,-1.20873 -80.43309,-2.44574 m 10.38212,0.37539 c -31.07429,-1.21674 -61.31665,-1.34296 -92.75893,-3.34825 m 36.68031,6.00538 c -27.22675,1.29729 -54.50799,1.66271 -82.25146,3.63192 m 9.98907,-6.71857 c -28.32255,-0.65623 -56.22589,0.22763 -83.34589,1.18986 m 28.9327,0.21684 c -27.092,0.59844 -55.14862,0.29214 -82.54894,0.32357 m 19.7621,1.70762 c -32.15901,0.47462 -62.38175,-1.17956 -93.22468,-3.72127 m 23.11515,0.0884 c -19.07151,0.11841 -37.33866,1.14165 -54.96699,3.17451 0.38387,6.34398 0.82645,12.78073 1.32313,19.31319 m -2.33696,-14.47937 c -0.15748,26.4167 -0.52089,50.46957 -1.38188,74.24825 0.58606,-0.0339 1.17183,-0.068 1.75731,-0.10227 m -6.85994,-14.49356 c -0.10711,5.38751 -0.1351,10.70854 -0.0926,15.96355 21.36183,-0.49737 43.81793,-2.0187 66.84463,-4.53436 m -16.02773,-3.60611 c 25.59654,-1.27025 52.82052,-0.0415 79.12705,1.18499 m -18.13918,2.25257 c 24.27481,-1.05163 49.4079,-0.70905 73.84138,-0.75205 m -8.95296,6.2208 c 31.86729,-1.32164 62.36934,0.0496 92.92234,0.60795 m -30.57666,1.18916 c 17.16419,-0.31885 34.06975,-0.26646 50.5402,-0.1081 -5.16714,6.24225 -10.42203,12.50568 -15.78057,18.76637 m 15.20796,-13.5298 c -19.92509,25.94364 -38.68439,50.13344 -58.75313,76.07856 m 12.61617,-24.564 c -16.59016,20.67447 -32.40663,40.18562 -48.81438,58.80557 m 20.71583,-5.56375 c -21.15114,27.527 -41.8953,51.57735 -64.76069,75.78392 m 14.30487,-29.81674 c -15.74104,18.18155 -29.68243,38.21124 -43.55522,58.89105 m 10.24768,-8.00647 c -13.72498,17.93398 -26.22688,35.36155 -37.83305,52.89495 6.74541,2.40158 14.00904,6.8734 21.56404,12.0695 2.11024,1.45136 4.24218,2.95932 6.38864,4.49451 m -25.77567,-17.39092 c 5.85345,2.23594 11.81493,6.07819 17.64263,10.59448 6.53389,5.06357 12.894,10.9762 18.97281,16.26796 6.07882,5.29176 11.89903,9.94783 17.42277,12.47923 1.09981,0.50402 2.18736,0.92415 3.26109,1.24932 m -12.92969,-10.46213 c 3.68298,2.14144 7.25827,3.92208 10.70319,5.07744 3.07276,1.03054 6.04251,1.56355 8.8874,1.41219 2.84489,-0.15136 5.5656,-0.98734 8.12302,-2.69237 9.62234,-13.32736 18.79275,-26.43862 27.6531,-39.9132 m -8.56449,13.74213 c 14.70045,-19.93884 29.9765,-40.96644 43.44851,-61.61475 m -4.36342,19.49562 c 15.74162,-21.68568 32.84486,-43.86886 48.6473,-65.75799 m -11.49664,9.20673 c 16.76193,-20.28628 31.50351,-40.36344 46.3893,-60.53677 m -9.3602,22.88836 c 15.55208,-20.91115 30.89749,-39.92976 46.61337,-59.05106 m -13.60886,3.27447 c 9.86259,-13.29984 19.6184,-25.57867 29.24813,-37.17242 9.08914,13.28019 18.06598,27.17071 26.9143,41.38908 m -11.73314,-21.65229 c 18.6539,23.23299 33.31904,44.71341 46.90695,66.12265 M 563.44124,699.1985 c 14.96413,18.79934 29.24122,37.87804 43.43193,57.05216 m -7.29126,-11.22271 c 16.67088,20.97271 32.52003,39.85945 48.62838,56.84423 m -11.34591,-5.62312 c 16.25319,22.93661 33.76374,43.0606 50.95234,62.20073 m -16.26299,-20.64998 c 14.4283,17.63515 27.36072,36.24658 39.85099,55.74381 4.29971,-3.56303 9.56843,-6.83149 15.20452,-9.90988 m -14.48061,9.46403 c 0.58629,0.73751 1.16967,1.47255 1.75022,2.2052 5.23228,-4.14281 11.53231,-8.20502 18.07514,-12.34894 6.54283,-4.14393 13.33077,-8.36813 19.6486,-12.74054 6.31784,-4.37242 12.17326,-8.88671 16.87502,-13.58235 4.70177,-4.69564 8.25606,-9.56539 9.88974,-14.72128 -0.9184,-1.17765 -1.83649,-2.35575 -2.75392,-3.53402 m -4.8986,15.91668 c 0.89175,-0.68369 1.75658,-1.37136 2.59071,-2.06365 5.0254,-4.17088 8.93401,-8.51261 10.90505,-13.15895 -10.92197,-13.73587 -21.47885,-27.04961 -31.76309,-39.56885 m 2.80964,13.66014 c -19.81972,-25.03819 -39.07061,-50.87652 -58.25056,-76.27924 m 24.4575,21.4538 C 702.63901,734.7211 683.05309,710.18018 662.24385,686.06099 m 20.12935,18.60542 C 661.97016,677.97876 640.44248,652.01729 615.91418,623.5713 m 14.48154,24.6755 c -16.08142,-20.29781 -31.51525,-40.13101 -46.16515,-58.33023 5.44389,0.53051 10.91751,1.12324 16.42187,1.78686 m -11.917,7.74497 c -2.18743,-2.90504 -4.40922,-5.85578 -6.65966,-8.84759 27.00219,0.22543 52.63131,-1.51278 78.77984,-3.67361 m -22.11961,5.98646 c 26.37331,-1.05552 53.24073,-1.17787 80.34606,-2.39684 m -23.01349,2.63155 c 30.34194,-0.20308 57.61519,0.74454 85.01207,2.37311 m -16.57784,-7.29528 c 28.46769,-1.03903 58.17986,-0.96914 88.09089,-2.16709 m -20.59366,7.98783 c 12.26518,0.0789 24.62926,0.0991 36.93505,0.0954 -0.40939,-15.7026 -0.90876,-31.44199 -1.79954,-47.15118 m 4.60651,15.34802 c -0.24425,-18.61958 -0.98027,-38.14428 -2.459,-57.64277 -10.85993,0.0147 -21.91837,0.0364 -33.21,0.19386 m 24.97369,3.90663 c -24.26336,0.0973 -50.56254,-0.15867 -77.74591,-0.62911 m 17.34546,-1.08989 c -23.66583,-0.52207 -47.93627,0.0914 -72.50281,1.02264 m 15.79014,-1.52987 c -25.94367,0.9112 -51.2048,0.63828 -77.25851,0.70611 m 16.67876,-6.83898 c -27.80859,0.83813 -55.31242,1.46102 -83.80636,3.51543 m 28.60831,-4.53135 c -24.30413,0.0468 -48.49935,1.06689 -73.35964,3.13706 m 14.04713,7.60501 c -25.42637,-0.25062 -51.01534,-0.003 -76.3196,0.28773 m 12.87132,-5.24813 c -23.01344,1.03648 -47.78857,-0.22679 -72.89959,-2.18712 m 18.85477,4.56968 c -26.75707,0.51136 -55.76904,0.52344 -85.97407,1.06963 m 25.59685,-2.98357 c -26.56225,0.83935 -54.43798,1.15531 -81.5828,2.68743 m 14.61753,-3.85968 c -27.83852,-0.18238 -54.36383,-0.10126 -80.28613,-0.12396 m 17.42442,0.20179 c -23.68325,-0.89113 -48.18513,-1.53934 -72.54651,-3.35027 m 20.01371,10.22516 c -17.66898,-0.8316 -35.27245,-0.9207 -52.86245,-0.96638 0.009,14.56237 0.0263,29.15462 0.0237,43.37765 m 2.34302,-41.98116 c 0.65545,24.30709 -0.35683,49.49376 -1.9662,74.93895 1.83316,0.0598 3.66256,0.12115 5.48872,0.18386 m 4.52424,-16.06203 c 0.0658,4.29952 0.11491,8.64496 0.15101,13.02911 24.05584,-0.26179 47.73407,0.59812 71.59742,1.45599 m -31.81841,7.83702 c 27.67741,0.10728 55.55851,-1.85521 83.84647,-5.68788 m -18.54141,4.75011 c 26.45398,-0.61735 51.52024,-1.16166 75.42376,-2.77026 m -11.07219,-5.94045 c 28.24426,-0.0335 57.41864,1.26952 86.19643,3.80506 m -24.78843,2.44531 c 14.96039,0.56456 30.71673,0.66548 46.76529,0.68437 -7.48644,10.06735 -14.78261,20.08078 -22.15401,30.24166 m 11.95552,-20.29107 c -19.84524,26.95454 -40.06393,52.62688 -60.99553,80.91623 m 22.92667,-25.54859 c -20.51615,26.18801 -40.18614,49.55987 -61.94293,72.84864 m 11.8529,-17.44674 c -14.33286,19.80369 -29.12437,39.05765 -42.97343,57.97289 m 10.3403,-9.13787 c -14.47384,19.58604 -30.77453,39.91128 -46.71072,59.64543 m 15.3716,-10.52552 c -11.06463,13.82946 -22.5244,28.66696 -34.21615,43.81863 6.02346,2.58882 12.31924,7.32103 18.66835,12.76272 3.77652,3.23678 7.57331,6.72146 11.35344,10.13952 m -17.3273,-25.79726 c 2.74007,1.74215 5.54448,3.77215 8.39717,5.97098 6.37128,4.91091 12.99079,10.67371 19.57396,15.83485 6.58316,5.16114 13.11828,9.70634 19.30741,12.14861 3.09456,1.22113 6.10383,1.91746 8.99728,1.91524 2.89344,-0.002 5.6717,-0.70248 8.30297,-2.26543 2.5843,-3.24579 5.15579,-6.49502 7.70495,-9.75702 m -28.4771,5.84205 c 0.90319,0.0712 1.79681,0.0847 2.67992,0.0348 2.85856,-0.16161 5.60703,-0.98992 8.21283,-2.66238 17.23345,-22.95028 34.54323,-43.22825 51.2887,-63.06131 m -7.96233,21.86741 c 18.95681,-24.52173 35.10226,-46.12042 50.7495,-67.62001 m -20.18286,26.49735 c 17.63796,-25.86537 39.94242,-48.14503 63.9582,-70.64889 m -13.53208,14.91395 c 16.69591,-21.29605 32.55625,-40.7333 48.98169,-59.45172 m -16.33927,9.18938 c 15.2217,-17.82507 28.84126,-37.14144 42.44592,-57.23182 4.78841,5.81962 9.57497,11.54335 14.42891,17.20246 m -12.35981,-11.43248 c 0.40582,-0.54453 0.81086,-1.08874 1.21514,-1.63265 19.58867,24.10012 37.38445,48.89691 53.9952,71.17912 m -19.21174,-15.99789 c 14.62133,20.20592 29.37266,38.1516 43.93978,55.39698 m -9.07321,-13.26137 c 14.86363,17.87866 29.99655,37.80103 45.76096,58.05764 m -11.14069,-11.22338 c 18.37805,25.52099 35.63839,47.35272 50.40933,68.06403 m -7.67604,-22.12356 c 17.75676,20.25989 32.08464,43.95471 45.33653,68.67469 0.24532,-0.21057 0.49428,-0.41992 0.74671,-0.62808 m -6.99107,-14.06264 c 4.21869,4.91883 8.32836,9.83006 12.36244,14.71521 5.07234,-4.55603 11.27155,-8.9691 17.81832,-13.39814 6.54677,-4.42905 13.4451,-8.87723 19.96956,-13.47373 2.91229,-2.05172 5.75037,-4.13226 8.44882,-6.24911 m -13.51431,16.73853 c 1.85405,-1.11068 3.69144,-2.23711 5.49479,-3.38123 6.43731,-4.0841 12.43809,-8.39768 17.23731,-12.98412 4.79921,-4.58643 8.40474,-9.43347 10.04087,-14.61753 -5.92403,-7.64991 -11.97216,-15.48133 -18.17512,-23.47089 m 4.47834,19.10651 c -15.3541,-19.2136 -31.09516,-40.42231 -47.06404,-62.20176 m 12.21184,9.55678 c -18.96836,-23.88062 -40.08322,-48.84266 -61.41811,-70.45119 m 29.22241,8.40191 C 680.3483,703.51105 658.79807,676.97449 634.50159,651.31035 m 14.06487,29.34644 c -18.72622,-24.32997 -34.23572,-48.24493 -48.24622,-74.19041 m 22.6564,26.32762 c -9.6472,-13.47692 -19.53679,-26.72803 -29.48485,-40.2052 7.333,-0.2897 14.65381,-0.62575 21.97956,-1.05025 m -28.31759,4.61726 c 26.50264,-1.16245 52.16167,-1.43672 76.85687,-3.02701 m -13.62124,-3.1447 c 28.92812,-0.81124 59.20008,0.87361 90.02629,3.16003 m -18.00265,-7.14393 c 25.65517,0.49216 49.19586,1.28596 72.20784,3.17336 m -19.57932,0.73261 c 24.57193,-0.19245 47.83536,0.45816 71.42248,1.6731 m -14.60187,-3.27493 c 11.75385,-0.40975 23.71029,-0.44605 35.80213,-0.26826 0.24918,-17.66338 0.80443,-34.84283 1.43737,-52.08 m -1.77313,22.89832 c 0.72773,-18.55861 0.92939,-37.10485 1.25565,-56.04623 -13.0484,-0.62371 -26.02957,-1.46057 -38.68573,-2.67205 m 21.77029,15.96589 c -32.12,1.45027 -63.75037,-2.24008 -93.51555,-6.90808 m 20.86628,-4.14686 c -33.06034,0.66278 -67.00825,-1.21969 -101.16915,-3.70314 m 37.19212,4.83552 c -34.43688,-0.77251 -65.30487,0.91877 -96.84196,2.7924 m 30.70529,-1.97211 c -30.57216,-0.81388 -61.27634,-0.51042 -90.72663,-1.23426 m 16.93021,-1.22682 c -34.25249,-1.33633 -64.96733,-0.75469 -96.04687,-2.17012 m 24.45873,2.56112 c -32.0568,-0.0892 -64.95198,1.42932 -96.73257,4.26167 m 36.46818,-7.65976 c -32.13545,1.02866 -66.73855,0.80156 -103.84171,2.1809 m 31.23248,1.52948 c -25.3402,-0.58094 -48.93349,-0.47968 -72.28926,-0.61251 m 19.9896,0.30018 c -24.45943,-0.17873 -51.39092,0.27199 -79.05908,1.02244 m 12.90418,-6.92037 c -27.92554,1.27646 -57.43934,2.30112 -86.26902,5.97496 m 17.36461,-2.1079 c -10.96735,0.32396 -21.56755,0.55749 -31.93882,0.79706 0.23013,19.19911 1.1919,38.41754 2.09565,58.2065 m 5.06259,-46.81584 c 0.60384,28.3138 0.518,54.14823 0.94242,79.87269 6.10448,-0.31088 12.23402,-0.62715 18.40165,-0.92306 m -20.43847,-17.38907 c -0.16177,3.68671 -0.27148,7.42118 -0.33557,11.19574 19.44589,-0.50107 40.08099,0.0434 61.04689,0.61669 m -18.36321,2.54072 c 30.26094,0.56056 63.03646,-1.20191 95.78641,-3.79955 m -29.14027,-1.7476 c 32.60772,-0.29527 62.9456,1.23792 93.91743,3.84236 m -27.8408,4.86895 c 27.64168,0.75909 54.06572,-1.40401 79.80232,-4.94382 m -14.48036,4.16251 c 14.79709,0.30371 28.93038,0.20201 42.74952,-0.1382 -6.71604,8.13294 -13.60863,16.13185 -20.53081,24.0669 m 13.12286,-12.35724 c -16.10912,20.13288 -31.00308,38.79999 -45.69561,56.00311 m 8.02353,-6.28743 c -14.96043,22.17982 -31.23651,41.92398 -46.41387,61.43562 m 9.70421,-25.3315 c -14.57686,19.45576 -31.5964,39.87927 -49.28528,59.94265 m 11.49307,-5.36283 c -18.53054,22.91741 -34.77116,47.68451 -50.29878,73.82757 m 15.26755,-25.63813 c -14.11518,18.2185 -26.90554,35.72757 -38.95295,53.20241 2.27576,0.78865 4.60708,1.8157 6.9864,3.02688 m -6.51386,-3.81632 c -1.87182,2.57416 -3.75265,5.1289 -5.64127,7.66662 6.24292,2.49484 12.79139,6.98609 19.41075,12.06259 6.61935,5.07649 13.31069,10.74007 19.87859,15.66739 3.98083,2.98647 7.91705,5.70426 11.76491,7.8597 m -3.93462,-12.54522 c 0.34151,0.25506 0.68239,0.5085 1.02261,0.76016 6.88409,5.092 13.49899,9.45296 19.71376,11.71179 3.10738,1.12942 6.11502,1.7335 9.00231,1.63947 2.88729,-0.094 5.65439,-0.88607 8.27285,-2.55255 10.86116,-14.33219 21.48429,-28.75311 32.38751,-43.25198 m -27.78545,22.99694 c 18.38544,-22.49317 36.06951,-45.14934 55.39327,-68.10456 m -20.00713,20.1439 C 386.7634,795.1368 408.9975,767.81164 433.892,740.11033 m -21.17996,22.406 c 16.37133,-22.11342 32.28955,-43.47445 47.12691,-65.03017 m -8.60664,17.57086 c 15.70668,-21.41305 33.36856,-42.56051 51.14895,-63.15858 m -11.17472,8.41862 c 7.78495,-9.99602 15.27354,-19.85831 22.59979,-29.72032 7.84072,10.1176 15.4955,20.23553 23.12861,30.19025 m -10.10535,-8.7056 c 15.65013,20.01492 31.82715,43.01346 47.05335,66.54142 m -8.2696,-8.51894 c 19.39825,26.40282 39.79768,48.60494 61.08836,69.82334 m -24.7418,-23.26896 c 19.26029,24.31267 39.79421,48.46698 62.84931,72.47285 M 642.3606,808.79485 c 20.57938,25.23226 41.01539,50.99013 63.61971,76.20725 m -17.15414,-17.07313 c 9.01793,10.44768 18.00969,21.17599 27.22321,31.84247 5.26396,-4.55494 11.81341,-8.95095 18.90214,-13.36515 3.11556,-1.94008 6.33509,-3.88394 9.59281,-5.84618 m -17.47047,6.14236 c 1.76465,-1.12649 3.56538,-2.24286 5.38669,-3.35146 6.78964,-4.1327 13.85955,-8.15532 20.46088,-12.20653 6.60133,-4.0512 12.73977,-8.13258 17.69353,-12.39566 4.95376,-4.26308 8.72603,-8.71003 10.55176,-13.47729 -2.16095,-2.6768 -4.32192,-5.35093 -6.47863,-8.02333 m 4.94192,19.55114 c 1.99582,-2.31782 3.54754,-4.72923 4.55136,-7.24327 -13.02497,-16.85491 -26.99502,-34.7237 -41.5219,-53.16998 m 7.82811,8.48564 c -17.92135,-23.47059 -37.87464,-50.30791 -57.09465,-77.57506 m 10.4527,24.80707 C 686.54278,729.43828 669.5052,709.90819 652.2704,692.43557 m 27.34396,17.25342 C 664.10981,689.3225 648.0178,667.44925 631.6103,643.973 m 9.7443,6.88517 c -16.75482,-22.06693 -34.49605,-43.77405 -52.88637,-65.4839 4.21296,0.0318 8.40906,0.0635 12.58969,0.0937 m -4.40892,17.01478 c -2.81924,-3.60273 -5.66616,-7.25879 -8.53237,-10.95405 26.62568,0.71537 52.68472,0.28483 79.5034,0.94574 m -33.11487,3.29118 c 29.69979,0.0223 57.68311,-1.54178 85.35706,-4.66284 m -17.01114,1.45939 c 31.34597,-1.0356 64.35807,1.95113 96.14856,6.07089 m -26.2526,-9.31261 c 25.87277,0.39304 53.39031,0.43619 79.92624,0.92257 m -15.83951,-1.07872 c 11.54906,0.28337 22.72233,0.4873 33.59284,0.70823 -0.81463,-19.42307 -2.55365,-38.7942 -4.82739,-57.59881 m -6.66916,19.04526 c 0.6344,-17.04044 0.86179,-34.08842 1.17952,-51.22958 -7.59467,-0.10049 -15.17044,-0.22048 -22.67971,-0.36816 m 26.69283,7.35715 c -33.47489,0.89345 -66.71565,-2.70753 -101.96222,-8.23757 m 30.61313,12.10433 c -25.55643,-0.38048 -49.40399,-0.84649 -73.49151,-1.98726 m 14.96809,-7.46575 c -30.19582,-0.11537 -60.44892,0.63894 -92.24561,1.96801 m 32.51601,0.29748 c -26.02782,-0.44219 -53.0636,-1.61545 -81.68037,-4.2853 m 9.45785,4.8717 c -28.98511,0.83555 -56.07712,0.58375 -82.26778,1.10643 m 23.26635,-0.12974 c -23.97719,1.02343 -48.91105,0.23805 -74.3101,-0.71164 m 13.37879,6.68754 c -29.54539,-0.71069 -57.301,-1.29113 -84.79447,-3.35062 m 29.22867,-5.75096 c -25.44492,-0.66243 -50.88786,0.81676 -75.83103,3.26516 m 12.71024,-1.97552 c -23.32044,0.74578 -46.36328,-0.19084 -68.24551,-1.66406 m 12.97854,6.0385 c -25.83712,-0.64788 -52.28529,0.12291 -78.41607,1.08845 m 16.21234,-3.7446 c -30.47143,-0.42221 -58.50068,-1.42377 -85.20964,-4.03516 0.27085,2.24529 0.55057,4.47977 0.83854,6.70287 m 1.1632,-0.40191 c 0.3795,26.81798 0.16627,53.19744 0.13664,78.77178 2.58313,-0.13631 5.16795,-0.28 7.75513,-0.4314 m -10.97826,-16.57971 c -0.21903,5.113 -0.40688,10.33749 -0.58029,15.6599 18.73596,0.11647 37.6656,1.54555 55.96825,3.62091 m -18.03173,-1.22076 c 28.50309,1.23112 56.83788,0.067 86.25233,-0.91353 m -17.27503,6.61576 c 25.68057,-1.17421 50.3141,-1.02886 74.24275,-1.61354 m -20.2509,-1.94032 c 30.32322,1.11912 60.34618,-0.0493 91.18482,-0.81028 m -23.10496,1.00488 c 18.46885,-0.62152 36.76569,-0.42372 55.05108,0.0322 -9.14711,12.21529 -18.30255,24.60257 -27.37835,36.85546 m 16.1338,-18.946 c -15.04136,20.26095 -31.52714,40.19166 -47.81122,59.06426 m 10.57948,-11.43304 c -19.6518,26.13617 -39.33382,51.6352 -58.10917,77.15403 m 15.99958,-33.20067 c -19.79827,25.46691 -39.94046,50.99869 -62.092,78.27305 m 20.58535,-12.60724 c -16.77012,22.2869 -36.59758,44.65632 -56.5304,64.59088 m 13.22312,-20.65867 c -9.4688,13.38088 -18.71569,26.50349 -27.41163,39.72891 6.68354,2.53113 13.88099,7.16207 21.44118,12.55695 1.32005,0.94197 2.65084,1.90723 3.99112,2.88862 m -13.48462,-14.51749 c 3.49886,2.16226 7.07311,4.75591 10.69152,7.57509 6.75306,5.26146 13.66307,11.3153 20.5033,16.75248 6.84023,5.43718 13.60793,10.24974 20.03787,12.96486 3.21497,1.35756 6.3447,2.18987 9.3653,2.32982 2.76021,0.12788 5.4292,-0.32237 8.0039,-1.45424 m -15.70826,4.1116 c 0.38091,0.16241 0.76056,0.31655 1.1389,0.46211 3.02384,1.16338 5.96408,1.77928 8.78983,1.68297 2.82575,-0.0963 5.53735,-0.90392 8.09428,-2.60471 14.29149,-19.76628 28.17433,-40.72403 40.94763,-62.55354 m -11.80172,25.8325 c 14.49931,-18.85835 28.13886,-37.75624 40.95772,-56.84762 m -18.84994,4.48626 c 17.73534,-24.20218 36.70792,-44.54457 57.19809,-64.08877 m -6.94577,20.15182 c 17.87565,-23.75685 33.37006,-47.39221 47.21537,-73.17046 m -13.39458,16.63391 c 14.9931,-18.00205 30.37519,-37.79964 46.85714,-58.14222 m -8.41703,20.16732 c 6.80221,-7.66953 13.03022,-15.56011 18.82932,-23.52901 8.3065,11.98785 15.73304,23.81504 22.70661,35.9011 m -8.7644,-25.47144 c 15.81711,20.82247 29.55661,39.96538 42.37022,59.44193 m -11.20362,-3.81987 c 15.12009,19.9285 31.57047,40.75646 47.76837,60.96966 m -10.67458,-14.43603 c 17.7196,22.43949 34.89612,42.92245 53.98576,63.55073 m -7.55286,-23.0033 c 15.49785,19.37866 29.27608,39.73736 41.7398,60.35516 m -15.56995,-11.41708 c 13.53753,16.7138 27.17732,34.13825 41.50708,51.97871 4.18299,-3.18696 9.16913,-6.20911 14.59779,-9.1322 m -6.15652,7.07638 c 0.57997,0.72947 1.15844,1.46326 1.73539,2.20124 4.85763,-4.54828 10.82955,-8.71965 17.084,-12.58033 6.25446,-3.86068 12.78892,-7.4112 18.83118,-10.86229 6.04225,-3.4511 11.59461,-6.81166 15.95084,-10.3593 3.40742,-2.77494 6.08876,-5.66934 7.68789,-8.77284 m -14.5872,9.47969 c 1.95425,-1.56215 3.79737,-3.12979 5.49858,-4.71053 4.95972,-4.60849 8.71622,-9.32845 10.49804,-14.34216 -12.95557,-16.7995 -26.39418,-33.46755 -40.48771,-51.06684 m 14.19046,21.14673 C 740.9417,790.77798 724.59864,768.48299 710.56572,747.48893 m 6.60091,14.86378 C 701.25941,741.15248 686.06096,722.51012 671.18087,704.8903 m 7.61165,8.15068 c -16.43677,-22.9737 -34.70651,-46.07206 -52.96015,-70.5547 m 13.67923,14.80601 c -15.75183,-21.42293 -31.84175,-42.39816 -46.36019,-62.50181 m 7.15453,28.1444 c -6.73184,-8.72003 -13.63118,-17.76869 -20.65102,-27.08648 21.67614,-0.8159 42.8904,-2.65898 63.99296,-5.0841 m -14.99794,-1.95172 c 30.76123,0.2433 57.29477,0.41542 82.24502,1.09188 m -20.96127,4.37711 c 24.72728,0.82463 50.0125,0.59168 74.57768,0.73314 m -12.32861,-6.31891 c 29.45574,1.41349 57.52021,0.70921 85.30975,1.07687 m -30.374,-3.14794 c 18.19791,-0.50372 37.08185,-0.0818 55.89796,0.76573 -0.096,-10.87993 -0.21634,-21.60653 -0.52412,-32.28789 m 0.18685,32.05544 c -1.16551,-24.32002 -4.7e-4,-48.55648 1.68272,-73.08188 m -5.43176,13.10688 c 0.28355,-6.12863 0.50779,-12.25805 0.70057,-18.39625 -19.64403,-0.29367 -39.64174,-0.68603 -58.94189,-1.47797 m 26.25946,-9.64445 c -29.50611,0.80193 -56.46885,1.04981 -82.17703,2.56886 m 23.31225,8.99358 c -34.07512,0.70254 -66.59193,0.53445 -101.47457,1.50566 m 24.96978,-10.80226 c -24.36516,1.17353 -48.9789,1.89387 -74.34352,3.99145 m 19.04498,10.03168 c -27.02121,0.53123 -58.01356,-2.16632 -90.0142,-6.90553 m 23.23247,3.74115 c -33.48633,-0.41367 -63.81425,-1.32392 -94.84538,-3.87471 m 26.38839,-3.07875 c -28.02659,-1.35473 -57.65812,-0.70042 -86.32916,-1.16641 m 24.0816,-0.2392 c -33.19827,0.57774 -65.94119,1.3443 -99.23897,4.02539 m 25.97948,-0.47054 c -27.74749,0.94094 -56.7479,0.24015 -86.39381,-0.0731 m 18.64813,-2.34943 c -32.41314,-1.13854 -64.88724,0.602 -95.24408,1.81525 m 32.54928,1.34867 c -26.6185,-1.2511 -52.96474,-0.20012 -80.41852,0.91046 -0.0531,0.88799 -0.10746,1.77604 -0.16304,2.66408 m 18.92095,-1.62096 c -5.55675,-0.0131 -11.10049,-0.0455 -16.63066,-0.0982 0.10342,18.41632 0.35853,36.60658 0.78646,54.54097 m 362.18506,80.2418 98.2249,127.38763 M 518.96582,506.375 l -143.51563,0 M 866,624.88612 866,475.7455 m -324.73405,-29.3705 190.15625,0 M 425.76308,611.01776 322.18061,745.22475"
       style="fill:#4fa4ff;fill-opacity:1;stroke:none"
       inkscape:path-effect="#path-effect3907"
       inkscape:original-d="m 272.59375,177.65625 c -19.80149,15.63153 -55.02354,27.83087 -65.09924,45.63515 47.79115,74.3694 95.59508,148.7306 143.41174,223.0836 22.07292,0 44.14583,0 66.21875,0 31.64334,-52.68691 63.24693,-105.39768 94.875,-158.09375 31.62807,52.69607 63.23166,105.40684 94.875,158.09375 22.07292,0 44.14583,0 66.21875,0 48.57567,-75.5332 97.13816,-151.07487 145.6875,-226.625 -22.94776,-9.36699 -50.76344,-41.50286 -70.72969,-37.06172 C 712.06562,236.66719 676.07969,290.64609 640.09375,344.625 608.43444,291.87684 576.79959,239.11399 545.125,186.375 c -22.08333,0 -44.16667,0 -66.25,0 -31.67459,52.73899 -63.30943,105.50184 -94.96875,158.25 C 346.80208,288.96875 309.69792,233.3125 272.59375,177.65625 z M 158,506.375 c 0,28 0,56 0,84 94.5625,0 189.125,0 283.6875,0 -66.27685,85.89923 -132.58888,171.77131 -198.84375,257.6875 24.73142,9.54241 54.79511,52.04727 75.86617,38.89645 64.81506,-84.05953 129.63097,-168.1184 194.44633,-252.1777 66.90618,86.77089 133.81294,173.54132 200.71875,260.3125 19.82208,-17.40559 58.82846,-31.69398 66.48802,-51.05853 C 715.14165,759.4628 649.86627,674.93206 584.625,590.375 c 93.79167,0 187.58333,0 281.375,0 0,-28 0,-56 0,-84 -236,0 -472,0 -708,0 z" />
  </g>
</svg>
